<?xml version="1.0" encoding="UTF-8"?>
<svg xmlns="http://www.w3.org/2000/svg"
     xmlns:xlink="http://www.w3.org/1999/xlink"
     version="1.2"
     width="141.42mm" height="100mm" viewBox="0 0 141.42 100"
     stroke="none"
     fill="#000000"
     stroke-width="0.3"
     font-size="3.88"
>
<defs>
  <marker id="arrow" markerWidth="15" markerHeight="7" refX="5" refY="3.5" orient="auto" markerUnits="strokeWidth">
    <path d="M0,0 L15,3.5 L0,7 z" stroke="context-stroke" fill="context-stroke"/>
  </marker>
</defs>
<g stroke-width="1.34" fill="#000000" fill-opacity="0.000" stroke="#D3D3D3" id="img-15b3eb2b-1">
  <g transform="translate(15.86,75.02)">
    <path fill="none" d="M-2.95,-12.06 L 2.95 12.06" class="primitive"/>
  </g>
  <g transform="translate(48.83,49.98)">
    <path fill="none" d="M-30.77,6.97 L 30.77 -6.97" class="primitive"/>
  </g>
  <g transform="translate(54.48,85.17)">
    <path fill="none" d="M28.18,-5.3 L -28.18 5.3" class="primitive"/>
  </g>
  <g transform="translate(87.45,60.13)">
    <path fill="none" d="M1.18,13.9 L -1.18 -13.9" class="primitive"/>
  </g>
  <g transform="translate(48.83,49.98)">
    <path fill="none" d="M30.77,-6.97 L -30.77 6.97" class="primitive"/>
  </g>
  <g transform="translate(107.75,24.96)">
    <path fill="none" d="M17.39,-13.21 L -17.39 13.21" class="primitive"/>
  </g>
</g>
<g stroke-width="1.34" stroke="#D3D3D3" id="img-15b3eb2b-2">
  <g transform="translate(18.19,84.5)">
    <path fill="none" d="M1.67,-1.53 L 0.63 2.57 -2.3 -1.04" class="primitive"/>
  </g>
  <g transform="translate(76.08,43.8)">
    <path fill="none" d="M-2.37,-0.96 L 3.52 -0.8 -1.14 1.76" class="primitive"/>
  </g>
  <g transform="translate(29.87,89.8)">
    <path fill="none" d="M2.3,1.04 L -3.57 0.67 1.27 -1.71" class="primitive"/>
  </g>
  <g transform="translate(86.49,48.84)">
    <path fill="none" d="M-1.9,1.39 L -0.22 -2.61 2.12 1.22" class="primitive"/>
  </g>
  <g transform="translate(21.57,56.15)">
    <path fill="none" d="M2.37,0.96 L -3.52 0.8 1.14 -1.76" class="primitive"/>
  </g>
  <g transform="translate(92.87,36.26)">
    <path fill="none" d="M2.73,0.02 L -2.52 1.91 -0.22 -1.93" class="primitive"/>
  </g>
</g>
<g font-size="4" stroke="#000000" stroke-opacity="0.000" fill="#000000" id="img-15b3eb2b-3">
</g>
<g stroke-width="0" stroke="#000000" stroke-opacity="0.000" fill="#40E0D0" id="img-15b3eb2b-4">
  <g transform="translate(19.94,91.67)">
    <circle cx="0" cy="0" r="6.32" class="primitive"/>
  </g>
  <g transform="translate(11.79,58.37)">
    <circle cx="0" cy="0" r="6.32" class="primitive"/>
  </g>
  <g transform="translate(89.02,78.68)">
    <circle cx="0" cy="0" r="6.32" class="primitive"/>
  </g>
  <g transform="translate(85.87,41.58)">
    <circle cx="0" cy="0" r="6.32" class="primitive"/>
  </g>
  <g transform="translate(129.64,8.33)">
    <circle cx="0" cy="0" r="6.32" class="primitive"/>
  </g>
</g>
<g font-size="4" stroke="#000000" stroke-opacity="0.000" fill="#000000" id="img-15b3eb2b-5">
  <g transform="translate(19.94,91.67)">
    <g class="primitive">
      <text text-anchor="middle" dy="0.35em">1</text>
    </g>
  </g>
  <g transform="translate(11.79,58.37)">
    <g class="primitive">
      <text text-anchor="middle" dy="0.35em">2</text>
    </g>
  </g>
  <g transform="translate(89.02,78.68)">
    <g class="primitive">
      <text text-anchor="middle" dy="0.35em">3</text>
    </g>
  </g>
  <g transform="translate(85.87,41.58)">
    <g class="primitive">
      <text text-anchor="middle" dy="0.35em">4</text>
    </g>
  </g>
  <g transform="translate(129.64,8.33)">
    <g class="primitive">
      <text text-anchor="middle" dy="0.35em">5</text>
    </g>
  </g>
</g>
</svg>
