<?xml version="1.0" encoding="UTF-8"?>
<svg xmlns="http://www.w3.org/2000/svg"
     xmlns:xlink="http://www.w3.org/1999/xlink"
     version="1.2"
     width="141.42mm" height="100mm" viewBox="0 0 141.42 100"
     stroke="none"
     fill="#000000"
     stroke-width="0.3"
     font-size="3.88"
>
<defs>
  <marker id="arrow" markerWidth="15" markerHeight="7" refX="5" refY="3.5" orient="auto" markerUnits="strokeWidth">
    <path d="M0,0 L15,3.5 L0,7 z" stroke="context-stroke" fill="context-stroke"/>
  </marker>
</defs>
<g stroke-width="1.5" fill="#000000" fill-opacity="0.000" stroke="#D3D3D3" id="img-478da308-1">
  <g transform="translate(95.35,28.62)">
    <path fill="none" d="M28.64,16.95 L -28.64 -16.95" class="primitive"/>
  </g>
  <g transform="translate(104.91,70.29)">
    <path fill="none" d="M20.06,-17.35 L -20.06 17.35" class="primitive"/>
  </g>
  <g transform="translate(70.71,50.36)">
    <path fill="none" d="M51.56,-1.26 L -51.56 1.26" class="primitive"/>
  </g>
  <g transform="translate(36.43,30.07)">
    <path fill="none" d="M20.03,-17.67 L -20.03 17.67" class="primitive"/>
  </g>
  <g transform="translate(45.99,71.73)">
    <path fill="none" d="M28.52,16.62 L -28.52 -16.62" class="primitive"/>
  </g>
</g>
<g stroke-width="1.5" stroke="#D3D3D3" id="img-478da308-2">
</g>
<g font-size="4" stroke="#000000" stroke-opacity="0.000" fill="#000000" id="img-478da308-3">
</g>
<g stroke-width="0" stroke="#000000" stroke-opacity="0.000" fill="#40E0D0" id="img-478da308-4">
  <g transform="translate(129.64,48.91)">
    <circle cx="0" cy="0" r="7.07" class="primitive"/>
  </g>
  <g transform="translate(61.07,8.33)">
    <circle cx="0" cy="0" r="7.07" class="primitive"/>
  </g>
  <g transform="translate(80.19,91.67)">
    <circle cx="0" cy="0" r="7.07" class="primitive"/>
  </g>
  <g transform="translate(11.79,51.8)">
    <circle cx="0" cy="0" r="7.07" class="primitive"/>
  </g>
</g>
<g font-size="4" stroke="#000000" stroke-opacity="0.000" fill="#000000" id="img-478da308-5">
  <g transform="translate(129.64,48.91)">
    <g class="primitive">
      <text text-anchor="middle" dy="0.35em">1</text>
    </g>
  </g>
  <g transform="translate(61.07,8.33)">
    <g class="primitive">
      <text text-anchor="middle" dy="0.35em">2</text>
    </g>
  </g>
  <g transform="translate(80.19,91.67)">
    <g class="primitive">
      <text text-anchor="middle" dy="0.35em">3</text>
    </g>
  </g>
  <g transform="translate(11.79,51.8)">
    <g class="primitive">
      <text text-anchor="middle" dy="0.35em">4</text>
    </g>
  </g>
</g>
</svg>
