<?xml version="1.0" encoding="UTF-8"?>
<svg xmlns="http://www.w3.org/2000/svg"
     xmlns:xlink="http://www.w3.org/1999/xlink"
     version="1.2"
     width="141.42mm" height="100mm" viewBox="0 0 141.42 100"
     stroke="none"
     fill="#000000"
     stroke-width="0.3"
     font-size="3.88"
>
<defs>
  <marker id="arrow" markerWidth="15" markerHeight="7" refX="5" refY="3.5" orient="auto" markerUnits="strokeWidth">
    <path d="M0,0 L15,3.5 L0,7 z" stroke="context-stroke" fill="context-stroke"/>
  </marker>
</defs>
<g stroke-width="1.5" fill="#000000" fill-opacity="0.000" stroke="#D3D3D3" id="img-81856732-1">
  <g transform="translate(23.4,68.36)">
    <path fill="none" d="M-9.17,-18.39 L 9.17 18.39" class="primitive"/>
  </g>
  <g transform="translate(59.54,26.69)">
    <path fill="none" d="M-41.28,15.87 L 41.28 -15.87" class="primitive"/>
  </g>
  <g transform="translate(70.71,50.51)">
    <path fill="none" d="M-51.62,-4.78 L 51.62 4.78" class="primitive"/>
  </g>
  <g transform="translate(82.33,73.82)">
    <path fill="none" d="M-40.81,15.4 L 40.81 -15.4" class="primitive"/>
  </g>
  <g transform="translate(118.46,32.15)">
    <path fill="none" d="M-8.85,-18.87 L 8.85 18.87" class="primitive"/>
  </g>
</g>
<g stroke-width="1.5" stroke="#D3D3D3" id="img-81856732-2">
</g>
<g font-size="4" stroke="#000000" stroke-opacity="0.000" fill="#000000" id="img-81856732-3">
</g>
<g stroke-width="0" stroke="#000000" stroke-opacity="0.000" fill="#40E0D0" id="img-81856732-4">
  <g transform="translate(11.79,45.05)">
    <circle cx="0" cy="0" r="7.07" class="primitive"/>
  </g>
  <g transform="translate(35.02,91.67)">
    <circle cx="0" cy="0" r="7.07" class="primitive"/>
  </g>
  <g transform="translate(107.29,8.33)">
    <circle cx="0" cy="0" r="7.07" class="primitive"/>
  </g>
  <g transform="translate(129.64,55.96)">
    <circle cx="0" cy="0" r="7.07" class="primitive"/>
  </g>
</g>
<g font-size="4" stroke="#000000" stroke-opacity="0.000" fill="#000000" id="img-81856732-5">
  <g transform="translate(11.79,45.05)">
    <g class="primitive">
      <text text-anchor="middle" dy="0.35em">1</text>
    </g>
  </g>
  <g transform="translate(35.02,91.67)">
    <g class="primitive">
      <text text-anchor="middle" dy="0.35em">2</text>
    </g>
  </g>
  <g transform="translate(107.29,8.33)">
    <g class="primitive">
      <text text-anchor="middle" dy="0.35em">3</text>
    </g>
  </g>
  <g transform="translate(129.64,55.96)">
    <g class="primitive">
      <text text-anchor="middle" dy="0.35em">4</text>
    </g>
  </g>
</g>
</svg>
